Coordinates
version=1
nRows=17
nColumns=40
inDegrees=yes

Units are S.I. units (second, meters, Newtons, ...)
Angles are in degrees.

endheader
time	pelvis_tilt	pelvis_list	pelvis_rotation	pelvis_tx	pelvis_ty	pelvis_tz	hip_flexion_r	hip_adduction_r	hip_rotation_r	knee_angle_r	knee_angle_r_beta	ankle_angle_r	subtalar_angle_r	mtp_angle_r	hip_flexion_l	hip_adduction_l	hip_rotation_l	knee_angle_l	knee_angle_l_beta	ankle_angle_l	subtalar_angle_l	mtp_angle_l	lumbar_extension	lumbar_bending	lumbar_rotation	arm_flex_r	arm_add_r	arm_rot_r	elbow_flex_r	pro_sup_r	wrist_flex_r	wrist_dev_r	arm_flex_l	arm_add_l	arm_rot_l	elbow_flex_l	pro_sup_l	wrist_flex_l	wrist_dev_l
     30.49314286	     -3.96058160	     -5.22950498	      6.76705843	      1.02778396	      0.92301578	      0.46916923	      1.82530418	      3.40198075	    -15.73284714	     11.98954296	     11.98954296	     15.85610543	      2.30441033	     -5.39526963	     31.43698597	     -7.48325770	     -0.97539941	     22.30129649	     22.30129649	      4.29314261	     -7.88049979	      6.89045060	     -9.96955867	      4.39251547	      3.89719514	     29.91723029	    -14.74046301	      5.76049037	     79.66213582	     44.58716868	      0.00000000	      0.00000000	     -2.43012688	     -8.93868235	    -14.60486047	     28.65582755	     47.26751126	      0.00000000	      0.00000000
     30.50628571	     -3.88929321	     -5.26921795	      6.60761230	      1.02941528	      0.92200424	      0.46758979	      1.19700706	      3.41043926	    -15.53923448	     11.88427938	     11.88427938	     16.25933427	      2.38880636	     -5.35948177	     30.94423270	     -7.52012317	     -1.36229399	     22.89057409	     22.89057409	      4.20455574	     -8.54395305	      6.61646188	     -9.80380491	      4.33240372	      3.93225598	     29.64797317	    -14.26006831	      6.00692945	     79.74203353	     44.57880216	      0.00000000	      0.00000000	     -2.64679025	     -8.97876195	    -14.66126051	     28.60809973	     47.26820371	      0.00000000	      0.00000000
     30.51942857	     -3.80663980	     -5.38773794	      6.46333187	      1.03119780	      0.92102123	      0.46585884	      0.52331112	      3.50796031	    -15.30832490	     11.71542633	     11.71542633	     16.68639753	      2.50632879	     -4.99197243	     30.44112296	     -7.57368565	     -1.41937195	     23.49079613	     23.49079613	      3.98564895	     -9.53466425	      5.91671986	     -9.63347539	      4.35983181	      3.80868848	     29.40075267	    -13.80280936	      6.42078841	     79.82183908	     44.57128435	      0.00000000	      0.00000000	     -2.97692518	     -9.01808633	    -14.80079763	     28.66773402	     47.27176158	      0.00000000	      0.00000000
     30.53257143	     -3.76916869	     -5.35986154	      6.24706769	      1.03296008	      0.92009706	      0.46400969	      0.06467984	      3.36823097	    -15.01935007	     11.95255699	     11.95255699	     17.62627886	      2.64143843	     -3.48446194	     29.80991627	     -7.43455089	     -1.32294607	     23.75394931	     23.75394931	      3.14012906	    -10.95020011	      3.88864916	     -9.45919660	      4.19111238	      3.64723775	     29.10027900	    -13.54251828	      7.48852663	     79.50134506	     44.58929723	      0.00000000	      0.00000000	     -3.45784711	     -8.99779862	    -15.30780905	     29.24607373	     47.28388313	      0.00000000	      0.00000000
     30.54571429	     -3.78065322	     -5.32340850	      6.05394155	      1.03472953	      0.91921424	      0.46196544	     -0.38952720	      3.20761491	    -14.79415069	     12.03401016	     12.03401016	     17.98718831	      2.67729403	     -3.56438882	     29.37932280	     -7.33778612	     -1.39546739	     24.29101476	     24.29101476	      3.51397455	    -11.38780009	      3.68905895	     -9.22131664	      4.06656495	      3.69151558	     28.51887982	    -13.27908407	      7.67047814	     79.37866965	     44.58619563	      0.00000000	      0.00000000	     -3.51522173	     -9.02258862	    -15.32445965	     29.22767526	     47.28363809	      0.00000000	      0.00000000
     30.55885714	     -3.66189839	     -5.25192570	      5.88373959	      1.03644391	      0.91862766	      0.45986678	     -0.90045355	      2.99409509	    -14.57427958	     12.27048653	     12.27048653	     18.25186516	      2.65763040	     -3.56651633	     29.02060570	     -7.20284347	     -1.30126794	     25.11313153	     25.11313153	      3.86821748	    -12.01540593	      3.46853169	     -9.17585319	      3.79879531	      3.72853631	     27.68470448	    -12.99318217	      7.93836737	     79.16231834	     44.58285877	      0.00000000	      0.00000000	     -3.54104596	     -9.07815559	    -15.34725759	     29.23045909	     47.28406930	      0.00000000	      0.00000000
     30.57200000	     -3.72364067	     -5.24322848	      5.73397669	      1.03773661	      0.91790134	      0.45748436	     -0.88858118	      2.73316615	    -14.35445395	     13.08348164	     13.08348164	     18.74483901	      2.36211890	     -3.15846960	     28.94275540	     -6.95672519	     -0.72440191	     25.91897800	     25.91897800	      4.18045161	    -13.29980033	      3.52004701	     -8.99204424	      3.67886440	      3.81841876	     26.98292025	    -13.09568782	      8.39716125	     78.83352324	     44.58621730	      0.00000000	      0.00000000	     -3.40779921	     -9.09578256	    -15.40118470	     29.39317545	     47.27949106	      0.00000000	      0.00000000
     30.58514286	     -3.69350868	     -5.15649930	      5.57507659	      1.03902902	      0.91764327	      0.45499526	     -0.94231100	      2.36761630	    -14.16871466	     13.96003493	     13.96003493	     19.11396216	      2.14869878	     -2.85405453	     28.68682111	     -6.71195115	     -0.43412079	     26.54835986	     26.54835986	      4.68915253	    -13.97836925	      3.51679038	     -8.94448650	      3.46383851	      3.84864506	     26.18199695	    -13.13444368	      8.85169085	     78.45561735	     44.58913296	      0.00000000	      0.00000000	     -3.24588716	     -9.12920799	    -15.42256060	     29.52853726	     47.27285386	      0.00000000	      0.00000000
     30.59828571	     -3.70356592	     -5.08456479	      5.42772204	      1.04008060	      0.91757546	      0.45239287	     -0.76450641	      1.95532579	    -14.00865848	     15.15357699	     15.15357699	     19.43640376	      1.87369572	     -2.57253457	     28.48552598	     -6.47665506	     -0.18097683	     27.10587986	     27.10587986	      5.27561608	    -14.51098917	      3.64027669	     -8.88442203	      3.27841426	      3.86678374	     25.27226159	    -13.24394281	      9.39492906	     77.93227043	     44.59540416	      0.00000000	      0.00000000	     -3.03092528	     -9.15715254	    -15.41398067	     29.68995615	     47.25970169	      0.00000000	      0.00000000
     30.61142857	     -3.67138271	     -5.03829324	      5.26123421	      1.04098070	      0.91776993	      0.44972002	     -0.43422683	      1.51077468	    -13.85914512	     16.67496551	     16.67496551	     19.56969211	      1.51109482	     -2.60384355	     28.23308989	     -6.30363697	     -0.04751362	     27.60639222	     27.60639222	      5.89494173	    -14.86681356	      3.66987102	     -8.91906818	      3.12604940	      3.90693540	     24.35336420	    -13.40287939	      9.85107709	     77.30383306	     44.60475076	      0.00000000	      0.00000000	     -2.72395423	     -9.16874431	    -15.38068573	     29.88714164	     47.24874463	      0.00000000	      0.00000000
     30.62457143	     -3.69479263	     -4.98830995	      5.06079148	      1.04160885	      0.91807337	      0.44706952	      0.24927691	      0.97946407	    -13.66259082	     18.70571385	     18.70571385	     19.60245749	      0.99235490	     -2.89517309	     27.99301050	     -6.15429451	     -0.05354859	     27.97719479	     27.97719479	      6.49904454	    -15.08754977	      3.73249859	     -8.92088012	      2.95304687	      3.97554951	     23.38611667	    -13.64526041	     10.34107776	     76.49784388	     44.61839145	      0.00000000	      0.00000000	     -2.34577583	     -9.18202161	    -15.31779391	     30.13633881	     47.23476722	      0.00000000	      0.00000000
     30.63771429	     -3.70858363	     -4.95529724	      4.85459717	      1.04208483	      0.91856186	      0.44444545	      1.11704104	      0.42918719	    -13.42847372	     21.04380717	     21.04380717	     19.38913984	      0.35452253	     -3.40832572	     27.69059661	     -6.04400717	     -0.12999687	     28.23134814	     28.23134814	      7.10986399	    -15.14552116	      3.77091121	     -8.95035753	      2.81461177	      4.03266186	     22.37402223	    -13.84039601	     10.86852072	     75.55393367	     44.63505435	      0.00000000	      0.00000000	     -1.96150585	     -9.21990010	    -15.22340464	     30.41404776	     47.21642798	      0.00000000	      0.00000000
     30.65085714	     -3.72646118	     -4.89227588	      4.58862429	      1.04231591	      0.91913649	      0.44191409	      2.27544118	     -0.21502326	    -13.09919314	     23.86482769	     23.86482769	     18.99460271	     -0.45559377	     -4.16230981	     27.33033501	     -5.96234619	     -0.42584776	     28.37614979	     28.37614979	      7.66329457	    -15.07600567	      3.72277812	     -9.03404556	      2.64243238	      4.09828120	     21.38345794	    -14.06415094	     11.34616303	     74.49847816	     44.65574018	      0.00000000	      0.00000000	     -1.51242522	     -9.27264657	    -15.11792704	     30.75358221	     47.19962113	      0.00000000	      0.00000000
     30.66400000	     -3.81466672	     -4.82911629	      4.29729866	      1.04235166	      0.91962556	      0.43951501	      3.78316647	     -0.88629713	    -12.65281924	     27.11782243	     27.11782243	     18.32372398	     -1.48600986	     -5.16182763	     26.98980825	     -5.89622466	     -0.79906593	     28.40710308	     28.40710308	      8.17977089	    -14.87637340	      3.62512235	     -9.01081283	      2.46706662	      4.16584663	     20.33407596	    -14.26981256	     11.85806952	     73.21285157	     44.68288731	      0.00000000	      0.00000000	     -1.08638741	     -9.35311902	    -14.97430821	     31.15675020	     47.17682666	      0.00000000	      0.00000000
     30.67714286	     -3.88890158	     -4.71405495	      3.96423597	      1.04220519	      0.92013470	      0.43725748	      5.49687869	     -1.61635099	    -12.08976431	     30.69490180	     30.69490180	     17.36659952	     -2.69179373	     -6.23199361	     26.59371565	     -5.82638576	     -1.34674413	     28.37926444	     28.37926444	      8.63588322	    -14.61314968	      3.45316706	     -9.05874355	      2.20678874	      4.18266896	     19.32706133	    -14.44800876	     12.32040837	     71.83065147	     44.71434938	      0.00000000	      0.00000000	     -0.61304033	     -9.46766046	    -14.81209318	     31.62750586	     47.15367421	      0.00000000	      0.00000000
     30.69028571	     -4.02232462	     -4.73676554	      3.59971861	      1.04189267	      0.92050403	      0.43535193	      7.37616251	     -2.01300617	    -11.10336314	     34.18975744	     34.18975744	     15.28957903	     -5.04727461	     -9.16945181	     26.30607622	     -5.94575104	     -1.93463244	     28.39446390	     28.39446390	      9.09458434	    -14.21301425	      3.16580628	     -8.95483290	      2.08544289	      3.88960997	     18.97954781	    -14.27970009	     13.28676440	     68.47080135	     44.81345562	      0.00000000	      0.00000000	     -0.65090343	     -9.80664917	    -13.97710805	     32.72964428	     47.00906377	      0.00000000	      0.00000000
     30.70342857	     -4.02109199	     -4.47607719	      3.27937720	      1.04148172	      0.92103377	      0.43323444	      9.30714034	     -2.91183720	    -10.58828930	     38.14525399	     38.14525399	     13.95926523	     -6.06901091	     -9.89647814	     25.72065438	     -5.72717788	     -2.57201833	     28.17745278	     28.17745278	      9.46858109	    -13.88941828	      2.92301312	     -9.13822094	      1.69751226	      3.68032093	     17.85441972	    -14.36537815	     13.61259032	     67.46379812	     44.83459747	      0.00000000	      0.00000000	     -0.16044592	     -9.99615854	    -13.85310645	     33.21684056	     46.99588688	      0.00000000	      0.00000000
